<?xml version="1.0" encoding="UTF-8" standalone="no"?>
<!DOCTYPE svg PUBLIC "-//W3C//DTD SVG 1.1//EN"
 "http://www.w3.org/Graphics/SVG/1.1/DTD/svg11.dtd">
<!-- Generated by graphviz version 2.43.0 (0)
 -->
<!-- Title: G Pages: 1 -->
<svg width="396pt" height="1205pt"
 viewBox="0.00 0.00 396.00 1205.00" xmlns="http://www.w3.org/2000/svg" xmlns:xlink="http://www.w3.org/1999/xlink">
<g id="graph0" class="graph" transform="scale(1 1) rotate(0) translate(4 1201)">
<title>G</title>
<polygon fill="white" stroke="transparent" points="-4,4 -4,-1201 392,-1201 392,4 -4,4"/>
<g id="clust1" class="cluster">
<title>cluster_llama_api</title>
<polygon fill="none" stroke="black" stroke-dasharray="1,5" points="8,-8 8,-1189 380,-1189 380,-8 8,-8"/>
<image xlink:href="icons/ns-128.png" width="96px" height="96px" preserveAspectRatio="xMinYMin meet" x="20" y="-1180.5"/>
<text text-anchor="start" x="35" y="-1067.3" font-family="Times,serif" font-size="14.00">llama&#45;api</text>
</g>
<!-- 0 -->
<!-- 1 -->
<!-- 0&#45;&gt;1 -->
<!-- 2 -->
<!-- 1&#45;&gt;2 -->
<!-- 3 -->
<!-- 2&#45;&gt;3 -->
<!-- 4 -->
<!-- 3&#45;&gt;4 -->
<!-- 5 -->
<!-- 4&#45;&gt;5 -->
<!-- 6 -->
<!-- 5&#45;&gt;6 -->
<!-- rs_llama_api_8b9b6c696 -->
<g id="node8" class="node">
<title>rs_llama_api_8b9b6c696</title>
<ellipse fill="none" stroke="black" stroke-width="0" cx="178" cy="-672.65" rx="123.07" ry="94.09"/>
<image xlink:href="icons/rs-128.png" width="128px" height="96px" preserveAspectRatio="xMinYMin meet" x="114" y="-730.652"/>
<text text-anchor="start" x="103" y="-617.45" font-family="Times,serif" font-size="14.00">llama&#45;api&#45;8b9b6c696</text>
</g>
<!-- pod_llama_api_8b9b6c696_mwnrq -->
<g id="node9" class="node">
<title>pod_llama_api_8b9b6c696_mwnrq</title>
<ellipse fill="none" stroke="black" stroke-width="0" cx="178" cy="-448.56" rx="161.85" ry="94.09"/>
<image xlink:href="icons/pod-128.png" width="128px" height="96px" preserveAspectRatio="xMinYMin meet" x="114.5" y="-506.562"/>
<text text-anchor="start" x="76" y="-393.36" font-family="Times,serif" font-size="14.00">llama&#45;api&#45;8b9b6c696&#45;mwnrq</text>
</g>
<!-- rs_llama_api_8b9b6c696&#45;&gt;pod_llama_api_8b9b6c696_mwnrq -->
<g id="edge7" class="edge">
<title>rs_llama_api_8b9b6c696&#45;&gt;pod_llama_api_8b9b6c696_mwnrq</title>
<path fill="none" stroke="black" stroke-dasharray="5,2" d="M178,-578.43C178,-570.08 178,-561.58 178,-553.15"/>
<polygon fill="black" stroke="black" points="181.5,-552.9 178,-542.9 174.5,-552.9 181.5,-552.9"/>
</g>
<!-- svc_llama_api -->
<g id="node11" class="node">
<title>svc_llama_api</title>
<ellipse fill="none" stroke="black" stroke-width="0" cx="178" cy="-167.26" rx="84.71" ry="94.09"/>
<image xlink:href="icons/svc-128.png" width="96px" height="96px" preserveAspectRatio="xMinYMin meet" x="130" y="-225.258"/>
<text text-anchor="start" x="145" y="-112.06" font-family="Times,serif" font-size="14.00">llama&#45;api</text>
</g>
<!-- pod_llama_api_8b9b6c696_mwnrq&#45;&gt;svc_llama_api -->
<g id="edge9" class="edge">
<title>pod_llama_api_8b9b6c696_mwnrq&#45;&gt;svc_llama_api</title>
<path fill="none" stroke="black" d="M178,-343.92C178,-316.92 178,-287.99 178,-261.56"/>
<polygon fill="black" stroke="black" points="174.5,-344.17 178,-354.17 181.5,-344.17 174.5,-344.17"/>
</g>
<!-- deploy_llama_api -->
<g id="node10" class="node">
<title>deploy_llama_api</title>
<ellipse fill="none" stroke="black" stroke-width="0" cx="178" cy="-896.74" rx="84.71" ry="94.09"/>
<image xlink:href="icons/deploy-128.png" width="96px" height="96px" preserveAspectRatio="xMinYMin meet" x="130" y="-954.743"/>
<text text-anchor="start" x="145" y="-841.54" font-family="Times,serif" font-size="14.00">llama&#45;api</text>
</g>
<!-- deploy_llama_api&#45;&gt;rs_llama_api_8b9b6c696 -->
<g id="edge8" class="edge">
<title>deploy_llama_api&#45;&gt;rs_llama_api_8b9b6c696</title>
<path fill="none" stroke="black" stroke-dasharray="5,2" d="M178,-802.52C178,-794.17 178,-785.67 178,-777.24"/>
<polygon fill="black" stroke="black" points="181.5,-776.99 178,-766.99 174.5,-776.99 181.5,-776.99"/>
</g>
</g>
</svg>
