<?xml version="1.0" encoding="UTF-8" standalone="no"?>
<!DOCTYPE svg PUBLIC "-//W3C//DTD SVG 1.1//EN"
 "http://www.w3.org/Graphics/SVG/1.1/DTD/svg11.dtd">
<!-- Generated by graphviz version 2.43.0 (0)
 -->
<!-- Title: G Pages: 1 -->
<svg width="476pt" height="1372pt"
 viewBox="0.00 0.00 476.00 1371.88" xmlns="http://www.w3.org/2000/svg" xmlns:xlink="http://www.w3.org/1999/xlink">
<g id="graph0" class="graph" transform="scale(1 1) rotate(0) translate(4 1367.88)">
<title>G</title>
<polygon fill="white" stroke="transparent" points="-4,4 -4,-1367.88 472,-1367.88 472,4 -4,4"/>
<g id="clust1" class="cluster">
<title>cluster_open_playground</title>
<polygon fill="none" stroke="black" stroke-dasharray="1,5" points="8,-8 8,-1355.88 460,-1355.88 460,-8 8,-8"/>
<image xlink:href="/icons/ns-128.png" width="121px" height="96px" preserveAspectRatio="xMinYMin meet" x="20.5" y="-1347.38"/>
<text text-anchor="start" x="20.5" y="-1234.18" font-family="Times,serif" font-size="14.00">open&#45;playground</text>
</g>
<!-- 0 -->
<!-- 1 -->
<!-- 0&#45;&gt;1 -->
<!-- 2 -->
<!-- 1&#45;&gt;2 -->
<!-- 3 -->
<!-- 2&#45;&gt;3 -->
<!-- 4 -->
<!-- 3&#45;&gt;4 -->
<!-- 5 -->
<!-- 4&#45;&gt;5 -->
<!-- 6 -->
<!-- 5&#45;&gt;6 -->
<!-- rs_open_playground_796944d5bc -->
<g id="node8" class="node">
<title>rs_open_playground_796944d5bc</title>
<ellipse fill="none" stroke="black" stroke-width="0" cx="218" cy="-839.53" rx="168.08" ry="94.09"/>
<image xlink:href="/icons/rs-128.png" width="128px" height="96px" preserveAspectRatio="xMinYMin meet" x="154" y="-897.53"/>
<text text-anchor="start" x="111" y="-784.33" font-family="Times,serif" font-size="14.00">open&#45;playground&#45;796944d5bc</text>
</g>
<!-- pod_open_playground_796944d5bc_vgjxm -->
<g id="node9" class="node">
<title>pod_open_playground_796944d5bc_vgjxm</title>
<ellipse fill="none" stroke="black" stroke-width="0" cx="218" cy="-615.44" rx="202.47" ry="94.09"/>
<image xlink:href="/icons/pod-128.png" width="128px" height="96px" preserveAspectRatio="xMinYMin meet" x="154" y="-673.439"/>
<text text-anchor="start" x="87" y="-560.24" font-family="Times,serif" font-size="14.00">open&#45;playground&#45;796944d5bc&#45;vgjxm</text>
</g>
<!-- rs_open_playground_796944d5bc&#45;&gt;pod_open_playground_796944d5bc_vgjxm -->
<g id="edge7" class="edge">
<title>rs_open_playground_796944d5bc&#45;&gt;pod_open_playground_796944d5bc_vgjxm</title>
<path fill="none" stroke="black" stroke-dasharray="5,2" d="M218,-745.31C218,-736.95 218,-728.46 218,-720.03"/>
<polygon fill="black" stroke="black" points="221.5,-719.78 218,-709.78 214.5,-719.78 221.5,-719.78"/>
</g>
<!-- pvc_open_playground_volumeclaim -->
<g id="node11" class="node">
<title>pvc_open_playground_volumeclaim</title>
<ellipse fill="none" stroke="black" stroke-width="0" cx="185" cy="-391.35" rx="169" ry="94.09"/>
<image xlink:href="/icons/pvc-128.png" width="128px" height="96px" preserveAspectRatio="xMinYMin meet" x="121.5" y="-449.349"/>
<text text-anchor="start" x="78" y="-336.15" font-family="Times,serif" font-size="14.00">open&#45;playground&#45;volumeclaim</text>
</g>
<!-- pod_open_playground_796944d5bc_vgjxm&#45;&gt;pvc_open_playground_volumeclaim -->
<g id="edge9" class="edge">
<title>pod_open_playground_796944d5bc_vgjxm&#45;&gt;pvc_open_playground_volumeclaim</title>
<path fill="none" stroke="black" d="M204.2,-521.54C202.41,-509.53 200.59,-497.24 198.8,-485.23"/>
</g>
<!-- svc_open_playground -->
<g id="node12" class="node">
<title>svc_open_playground</title>
<ellipse fill="none" stroke="black" stroke-width="0" cx="317" cy="-167.26" rx="102.56" ry="94.09"/>
<image xlink:href="/icons/svc-128.png" width="121px" height="96px" preserveAspectRatio="xMinYMin meet" x="257" y="-225.258"/>
<text text-anchor="start" x="257" y="-112.06" font-family="Times,serif" font-size="14.00">open&#45;playground</text>
</g>
<!-- pod_open_playground_796944d5bc_vgjxm&#45;&gt;svc_open_playground -->
<g id="edge10" class="edge">
<title>pod_open_playground_796944d5bc_vgjxm&#45;&gt;svc_open_playground</title>
<path fill="none" stroke="black" d="M334.78,-528.55C346.14,-515.39 356.02,-500.94 363,-485.39 395.85,-412.17 377.08,-320.78 354.42,-254.94"/>
<polygon fill="black" stroke="black" points="332.02,-526.38 327.93,-536.15 337.22,-531.07 332.02,-526.38"/>
</g>
<!-- deploy_open_playground -->
<g id="node10" class="node">
<title>deploy_open_playground</title>
<ellipse fill="none" stroke="black" stroke-width="0" cx="218" cy="-1063.62" rx="102.56" ry="94.09"/>
<image xlink:href="/icons/deploy-128.png" width="121px" height="96px" preserveAspectRatio="xMinYMin meet" x="158" y="-1121.62"/>
<text text-anchor="start" x="158" y="-1008.42" font-family="Times,serif" font-size="14.00">open&#45;playground</text>
</g>
<!-- deploy_open_playground&#45;&gt;rs_open_playground_796944d5bc -->
<g id="edge8" class="edge">
<title>deploy_open_playground&#45;&gt;rs_open_playground_796944d5bc</title>
<path fill="none" stroke="black" stroke-dasharray="5,2" d="M218,-969.4C218,-961.04 218,-952.55 218,-944.12"/>
<polygon fill="black" stroke="black" points="221.5,-943.87 218,-933.87 214.5,-943.87 221.5,-943.87"/>
</g>
</g>
</svg>
